<svg version="1.1" id="Layer_1" xmlns="http://www.w3.org/2000/svg" xmlns:xlink="http://www.w3.org/1999/xlink" x="0px" y="0px"
	 width="100%" viewBox="0 0 206 127" enable-background="new 0 0 206 127" xml:space="preserve">
<path fill="#FFFFFF" opacity="1.000000" stroke="none" 
	d="
M158.000000,128.000000 
	C105.333336,128.000000 53.166679,128.000000 1.000014,128.000000 
	C1.000009,85.666679 1.000009,43.333355 1.000005,1.000025 
	C69.666649,1.000017 138.333298,1.000017 206.999954,1.000008 
	C206.999969,43.333309 206.999969,85.666618 206.999985,127.999962 
	C190.833328,128.000000 174.666672,128.000000 158.000000,128.000000 
M24.300650,110.026344 
	C23.542084,111.075180 21.974497,112.870636 22.148329,113.058983 
	C24.208693,115.291542 26.415556,117.443802 28.882566,119.196938 
	C29.341549,119.523094 31.120995,117.991096 31.910395,117.536064 
	C31.075750,115.531960 30.535528,114.234802 30.648842,113.176056 
	C33.332664,115.059082 36.016487,116.942108 39.215485,119.186592 
	C40.283909,116.399521 41.139187,114.168457 42.658981,112.184219 
	C43.909523,112.828522 45.160065,113.472824 46.346146,114.083916 
	C48.434784,111.506172 50.272892,109.237617 52.584278,106.384956 
	C44.774693,100.159348 37.156330,94.086174 29.225204,87.763680 
	C26.838163,90.719376 24.716461,93.346527 22.815405,95.700462 
	C24.523428,97.866676 25.784403,99.465912 26.322773,100.986328 
	C23.651474,99.326180 21.785784,100.610664 21.140867,103.063057 
	C20.855587,104.147873 22.263386,105.722748 23.002533,107.018135 
	C23.606619,108.076820 24.359093,109.050850 24.300650,110.026344 
M180.854462,110.596657 
	C178.455109,112.664124 176.055756,114.731590 173.308167,117.099121 
	C179.826996,122.584793 180.696945,113.681068 184.864166,114.411880 
	C184.943481,113.967781 185.022781,113.523689 185.102097,113.079590 
	C183.732376,112.057915 182.362656,111.036240 180.454727,109.427612 
	C180.992828,108.805473 181.439423,108.060394 182.083664,107.580803 
	C186.865509,104.021019 186.877838,104.037575 182.219604,100.242325 
	C180.061829,101.193626 178.000259,102.102516 176.171890,102.363190 
	C176.638901,101.894737 177.088257,101.407036 177.575577,100.960770 
	C183.783707,95.275658 183.787628,95.274681 177.709076,89.068420 
	C177.367813,88.719986 176.929245,88.466843 176.478531,88.125900 
	C168.931747,94.130554 161.401184,100.122299 153.515869,106.396301 
	C155.938629,109.162910 157.979080,111.492943 160.194656,114.022957 
	C162.927383,112.243370 165.466354,110.589973 168.576874,109.526329 
	C167.055649,110.929207 165.534409,112.332085 163.884415,113.853706 
	C165.021408,115.540169 166.093109,117.129822 167.333557,118.969742 
	C168.628448,118.100822 169.789642,117.305473 170.966904,116.534698 
	C174.337067,114.328239 177.713745,112.131737 180.854462,110.596657 
M55.004734,87.502769 
	C70.995544,67.684799 86.986359,47.866825 103.096657,27.900764 
	C122.297722,51.656471 141.131439,74.957710 159.906509,98.186371 
	C162.789810,95.816162 164.923416,94.062233 167.223785,92.171227 
	C166.468109,90.892075 165.935974,89.677849 165.132935,88.682106 
	C159.247955,81.384796 153.430069,74.027534 147.341034,66.902832 
	C143.689484,62.630222 141.372467,58.343330 141.852448,52.328922 
	C142.459991,44.715908 141.845230,37.013195 142.065201,29.358007 
	C142.170853,25.681026 140.610779,24.809097 137.299179,24.899599 
	C134.197342,24.984365 131.712738,24.908817 131.931030,29.251040 
	C132.217987,34.958698 132.001495,40.691662 132.001495,47.641659 
	C121.908051,35.227619 112.656616,23.849173 103.015045,11.990896 
	C81.182777,39.024761 60.001221,65.252876 38.939320,91.332825 
	C40.625732,93.067749 41.684795,94.127670 42.710796,95.218681 
	C45.186115,97.850838 47.206535,98.712135 49.286217,94.570786 
	C50.512722,92.128395 52.726627,90.181862 55.004734,87.502769 
M114.500000,103.976776 
	C99.361969,103.976807 84.222916,103.900688 69.087669,104.105972 
	C67.718925,104.124535 66.374779,105.956230 65.019203,106.945915 
	C66.354942,107.963402 67.683746,109.857269 69.027458,109.867920 
	C91.982590,110.049698 114.939964,110.049507 137.895142,109.870827 
	C139.263855,109.860176 140.618240,108.008743 141.979294,107.013878 
	C140.638702,106.001846 139.329865,104.167877 137.952225,104.114670 
	C130.477524,103.825951 122.985840,103.977097 114.500000,103.976776 
M113.424942,100.005661 
	C115.255714,100.005890 117.196068,100.383888 118.884712,99.894096 
	C120.402649,99.453827 121.644226,98.060783 123.007706,97.088013 
	C121.689835,96.059044 120.390968,94.166809 119.051102,94.137329 
	C108.071777,93.895714 97.082596,93.897354 86.102951,94.131477 
	C84.722198,94.160927 83.379395,95.969604 82.019012,96.953926 
	C83.339043,97.971100 84.633804,99.828590 85.983208,99.869164 
	C94.796242,100.134163 103.621117,100.005585 113.424942,100.005661 
M112.999100,80.308502 
	C112.998932,78.979973 112.892120,77.641098 113.019791,76.324966 
	C113.329857,73.128479 112.068161,71.896454 108.764702,71.910126 
	C105.504250,71.923622 104.754379,73.432129 104.961319,76.221382 
	C105.071594,77.707802 105.016426,79.210152 104.972984,80.703476 
	C104.905434,83.026054 104.997147,85.045364 108.224457,85.036461 
	C110.971779,85.028893 113.370888,84.953209 112.999100,80.308502 
M92.061188,73.973503 
	C92.041328,76.296623 92.164391,78.631882 91.968262,80.940018 
	C91.671120,84.436928 93.487663,85.156189 96.500793,85.031250 
	C102.126976,84.797974 99.782616,80.551949 99.900650,77.970810 
	C100.198502,71.457436 98.523224,70.516769 92.061188,73.973503 
M112.989990,65.110489 
	C112.992996,63.281239 112.909714,61.446819 113.018867,59.623928 
	C113.190529,56.756939 112.706673,54.891479 109.074677,54.871059 
	C105.630203,54.851700 104.657997,56.282108 104.959518,59.367836 
	C105.088280,60.685596 104.735260,62.086437 105.042114,63.341724 
	C105.429337,64.925766 106.254341,67.675949 106.912994,67.682564 
	C108.915047,67.702660 110.927940,66.644478 112.989990,65.110489 
M98.210197,67.911705 
	C98.716599,64.035248 99.292419,60.164551 99.615242,56.272869 
	C99.645424,55.908920 98.090096,55.075130 97.247749,55.041580 
	C94.871864,54.946960 91.950523,54.209625 91.993790,58.275257 
	C92.087372,67.070213 91.110413,68.567871 98.210197,67.911705 
z"/>
<path fill="#FF7F27" opacity="1.000000" stroke="none" 
	d="
M54.750603,87.757545 
	C52.726627,90.181862 50.512722,92.128395 49.286217,94.570786 
	C47.206535,98.712135 45.186115,97.850838 42.710796,95.218681 
	C41.684795,94.127670 40.625732,93.067749 38.939320,91.332825 
	C60.001221,65.252876 81.182777,39.024761 103.015045,11.990896 
	C112.656616,23.849173 121.908051,35.227619 132.001495,47.641659 
	C132.001495,40.691662 132.217987,34.958698 131.931030,29.251040 
	C131.712738,24.908817 134.197342,24.984365 137.299179,24.899599 
	C140.610779,24.809097 142.170853,25.681026 142.065201,29.358007 
	C141.845230,37.013195 142.459991,44.715908 141.852448,52.328922 
	C141.372467,58.343330 143.689484,62.630222 147.341034,66.902832 
	C153.430069,74.027534 159.247955,81.384796 165.132935,88.682106 
	C165.935974,89.677849 166.468109,90.892075 167.223785,92.171227 
	C164.923416,94.062233 162.789810,95.816162 159.906509,98.186371 
	C141.131439,74.957710 122.297722,51.656471 103.096657,27.900764 
	C86.986359,47.866825 70.995544,67.684799 54.750603,87.757545 
z"/>
<path fill="#FF7F27" opacity="1.000000" stroke="none" 
	d="
M115.000000,103.976761 
	C122.985840,103.977097 130.477524,103.825951 137.952225,104.114670 
	C139.329865,104.167877 140.638702,106.001846 141.979294,107.013885 
	C140.618240,108.008743 139.263855,109.860176 137.895142,109.870827 
	C114.939964,110.049507 91.982590,110.049698 69.027458,109.867920 
	C67.683746,109.857269 66.354942,107.963402 65.019203,106.945915 
	C66.374779,105.956230 67.718925,104.124535 69.087669,104.105972 
	C84.222916,103.900688 99.361969,103.976807 115.000000,103.976761 
z"/>
<path fill="#FF7F27" opacity="1.000000" stroke="none" 
	d="
M27.045380,101.065147 
	C25.784403,99.465912 24.523428,97.866676 22.815405,95.700462 
	C24.716461,93.346527 26.838163,90.719376 29.225204,87.763680 
	C37.156330,94.086174 44.774693,100.159348 52.584278,106.384956 
	C50.272892,109.237617 48.434784,111.506172 46.346146,114.083916 
	C45.160065,113.472824 43.909523,112.828522 42.336239,112.083191 
	C42.013496,111.982155 42.051662,112.012383 41.926491,111.673599 
	C40.183662,110.552429 38.566002,109.770050 36.966862,109.001221 
	C36.985382,109.014778 37.012878,109.051537 37.294579,108.769669 
	C36.046661,107.308052 34.517040,106.128304 33.001041,104.967018 
	C33.014660,104.985489 33.051464,105.012901 32.933823,104.682518 
	C30.860132,103.230232 28.904079,102.108322 26.974415,101.003571 
	C27.000805,101.020714 27.045380,101.065147 27.045380,101.065147 
z"/>
<path fill="#FF7F27" opacity="1.000000" stroke="none" 
	d="
M168.005325,108.936569 
	C165.466354,110.589973 162.927383,112.243370 160.194656,114.022957 
	C157.979080,111.492943 155.938629,109.162910 153.515869,106.396301 
	C161.401184,100.122299 168.931747,94.130554 176.478531,88.125900 
	C176.929245,88.466843 177.367813,88.719986 177.709076,89.068420 
	C183.787628,95.274681 183.783707,95.275658 177.575577,100.960770 
	C177.088257,101.407036 176.638901,101.894737 176.078094,102.677437 
	C175.984299,102.991684 176.018448,102.955109 175.640411,102.990089 
	C174.503937,104.034050 173.745468,105.043030 173.000824,106.033524 
	C173.014633,106.015030 173.051773,105.987564 172.769730,105.699783 
	C170.974579,106.612030 169.461472,107.812057 167.967346,108.996780 
	C167.986343,108.981491 168.005325,108.936577 168.005325,108.936569 
z"/>
<path fill="#FF7F27" opacity="1.000000" stroke="none" 
	d="
M112.933533,100.005661 
	C103.621117,100.005585 94.796242,100.134163 85.983208,99.869164 
	C84.633804,99.828590 83.339043,97.971100 82.019012,96.953926 
	C83.379395,95.969604 84.722198,94.160927 86.102951,94.131477 
	C97.082596,93.897354 108.071777,93.895714 119.051102,94.137329 
	C120.390968,94.166809 121.689835,96.059044 123.007706,97.088013 
	C121.644226,98.060783 120.402649,99.453827 118.884712,99.894096 
	C117.196068,100.383888 115.255714,100.005890 112.933533,100.005661 
z"/>
<path fill="#FF7F27" opacity="1.000000" stroke="none" 
	d="
M181.087845,109.931320 
	C177.713745,112.131737 174.337067,114.328239 170.966904,116.534698 
	C169.789642,117.305473 168.628448,118.100822 167.333557,118.969742 
	C166.093109,117.129822 165.021408,115.540169 163.884415,113.853706 
	C165.534409,112.332085 167.055649,110.929207 168.291107,109.231453 
	C168.005325,108.936577 167.986343,108.981491 168.249481,109.284576 
	C170.025681,108.387627 171.538727,107.187599 173.051773,105.987564 
	C173.051773,105.987564 173.014633,106.015030 173.345734,105.907097 
	C174.457367,104.851143 175.237900,103.903122 176.018448,102.955109 
	C176.018448,102.955109 175.984299,102.991684 175.961487,103.001541 
	C178.000259,102.102516 180.061829,101.193626 182.219604,100.242325 
	C186.877838,104.037575 186.865509,104.021019 182.083664,107.580803 
	C181.439423,108.060394 180.992828,108.805473 180.746658,109.699249 
	C181.038589,109.970886 181.087845,109.931313 181.087845,109.931320 
z"/>
<path fill="#FF7F27" opacity="1.000000" stroke="none" 
	d="
M42.003983,111.959778 
	C41.139187,114.168457 40.283909,116.399521 39.215485,119.186592 
	C36.016487,116.942108 33.332664,115.059082 30.331444,113.079201 
	C30.014046,112.982346 30.051872,113.012703 29.926941,112.675629 
	C28.184023,111.554802 26.566034,110.771057 24.974339,110.003662 
	C25.000631,110.020020 25.045778,110.062408 25.045776,110.062408 
	C24.359093,109.050850 23.606619,108.076820 23.002533,107.018135 
	C22.263386,105.722748 20.855587,104.147873 21.140867,103.063057 
	C21.785784,100.610664 23.651474,99.326180 26.684076,101.025742 
	C27.045380,101.065147 27.000805,101.020714 27.092545,101.334526 
	C29.140011,102.769859 31.095737,103.891380 33.051464,105.012901 
	C33.051464,105.012901 33.014660,104.985489 32.719749,105.249222 
	C33.954185,106.692474 35.483532,107.872009 37.012878,109.051537 
	C37.012878,109.051537 36.985382,109.014778 37.091835,109.339371 
	C38.816082,110.446770 40.433872,111.229576 42.051662,112.012383 
	C42.051662,112.012383 42.013496,111.982155 42.003983,111.959778 
z"/>
<path fill="#FF7F27" opacity="1.000000" stroke="none" 
	d="
M112.998550,80.760735 
	C113.370888,84.953209 110.971779,85.028893 108.224457,85.036461 
	C104.997147,85.045364 104.905434,83.026054 104.972984,80.703476 
	C105.016426,79.210152 105.071594,77.707802 104.961319,76.221382 
	C104.754379,73.432129 105.504250,71.923622 108.764702,71.910126 
	C112.068161,71.896454 113.329857,73.128479 113.019791,76.324966 
	C112.892120,77.641098 112.998932,78.979973 112.998550,80.760735 
z"/>
<path fill="#FF7F27" opacity="1.000000" stroke="none" 
	d="
M92.212967,73.552391 
	C98.523224,70.516769 100.198502,71.457436 99.900650,77.970810 
	C99.782616,80.551949 102.126976,84.797974 96.500793,85.031250 
	C93.487663,85.156189 91.671120,84.436928 91.968262,80.940018 
	C92.164391,78.631882 92.041328,76.296623 92.212967,73.552391 
z"/>
<path fill="#FF7F27" opacity="1.000000" stroke="none" 
	d="
M112.963303,65.558334 
	C110.927940,66.644478 108.915047,67.702660 106.912994,67.682564 
	C106.254341,67.675949 105.429337,64.925766 105.042114,63.341724 
	C104.735260,62.086437 105.088280,60.685596 104.959518,59.367836 
	C104.657997,56.282108 105.630203,54.851700 109.074677,54.871059 
	C112.706673,54.891479 113.190529,56.756939 113.018867,59.623928 
	C112.909714,61.446819 112.992996,63.281239 112.963303,65.558334 
z"/>
<path fill="#FF7F27" opacity="1.000000" stroke="none" 
	d="
M97.767097,67.948700 
	C91.110413,68.567871 92.087372,67.070213 91.993790,58.275257 
	C91.950523,54.209625 94.871864,54.946960 97.247749,55.041580 
	C98.090096,55.075130 99.645424,55.908920 99.615242,56.272869 
	C99.292419,60.164551 98.716599,64.035248 97.767097,67.948700 
z"/>
<path fill="#FF7F27" opacity="1.000000" stroke="none" 
	d="
M30.004677,112.959999 
	C30.535528,114.234802 31.075750,115.531960 31.910395,117.536064 
	C31.120995,117.991096 29.341549,119.523094 28.882566,119.196938 
	C26.415556,117.443802 24.208693,115.291542 22.148329,113.058983 
	C21.974497,112.870636 23.542084,111.075180 24.673214,110.044373 
	C25.045778,110.062408 25.000631,110.020020 25.099497,110.340797 
	C26.816198,111.445282 28.434036,112.228996 30.051872,113.012703 
	C30.051872,113.012703 30.014046,112.982346 30.004677,112.959999 
z"/>
<path fill="#FF7F27" opacity="1.000000" stroke="none" 
	d="
M181.015762,109.992722 
	C182.362656,111.036240 183.732376,112.057915 185.102097,113.079590 
	C185.022781,113.523689 184.943481,113.967781 184.864166,114.411880 
	C180.696945,113.681068 179.826996,122.584793 173.308167,117.099121 
	C176.055756,114.731590 178.455109,112.664124 180.971161,110.263985 
	C181.087845,109.931313 181.038589,109.970886 181.015762,109.992722 
z"/>
<path fill="#FFFFFF" opacity="1.000000" stroke="none" 
	d="
M32.933823,104.682518 
	C31.095737,103.891380 29.140011,102.769859 27.066154,101.317383 
	C28.904079,102.108322 30.860132,103.230232 32.933823,104.682518 
z"/>
<path fill="#FFFFFF" opacity="1.000000" stroke="none" 
	d="
M41.926491,111.673599 
	C40.433872,111.229576 38.816082,110.446770 37.073315,109.325813 
	C38.566002,109.770050 40.183662,110.552429 41.926491,111.673599 
z"/>
<path fill="#FFFFFF" opacity="1.000000" stroke="none" 
	d="
M37.294579,108.769669 
	C35.483532,107.872009 33.954185,106.692474 32.706131,105.230743 
	C34.517040,106.128304 36.046661,107.308052 37.294579,108.769669 
z"/>
<path fill="#FFFFFF" opacity="1.000000" stroke="none" 
	d="
M172.769730,105.699783 
	C171.538727,107.187599 170.025681,108.387627 168.230499,109.299866 
	C169.461472,107.812057 170.974579,106.612030 172.769730,105.699783 
z"/>
<path fill="#FFFFFF" opacity="1.000000" stroke="none" 
	d="
M175.640411,102.990082 
	C175.237900,103.903122 174.457367,104.851143 173.331909,105.925583 
	C173.745468,105.043030 174.503937,104.034050 175.640411,102.990082 
z"/>
<path fill="#FFFFFF" opacity="1.000000" stroke="none" 
	d="
M29.926941,112.675629 
	C28.434036,112.228996 26.816198,111.445282 25.073204,110.324448 
	C26.566034,110.771057 28.184023,111.554802 29.926941,112.675629 
z"/>
</svg>